<svg xmlns="http://www.w3.org/2000/svg" xmlns:xlink="http://www.w3.org/1999/xlink" fill="#ffffff" x="0px" y="0px" width="136px" height="116px" viewBox="0 0 136 116">
            <path d="M17.8,23.5c0.8-1.2,0.8-3,0.8-4.5V3.3H14c-0.8,0-1.6,0.1-2.4,0.8l0.7-2.5h17.3
                C29,3,26.9,3.3,25.5,3.3h-3.8V19c0,1.5,0,3.3,0.8,4.5H17.8z M46.4,11H36.2V6.1c0-1.5,0-3.1,0.8-4.5h-4.7c0.8,1.4,0.8,3,0.8,4.5V19
                c0,1.5,0,3.1-0.8,4.5H37c-0.8-1.4-0.8-3-0.8-4.5v-6.6h10.2V19c0,1.5,0,3.1-0.8,4.5h4.7c-0.8-1.4-0.8-3-0.8-4.5V6.1
                c0-1.5,0-3.1,0.8-4.5h-4.7c0.8,1.4,0.8,3,0.8,4.5V11z M57.9,12.9h0.9c2.1,0,6,0,7.2-2c-2.6,0.2-5.4,0.2-8.1,0.2V2.9h3.2
                c2,0,3.9,0.2,5.1,1.3L66,1.6H54c0.8,1.2,0.8,3,0.8,4.5V19c0,1.5-0.1,3.3-0.9,4.5h9.9c1.2,0,2.4-0.1,3.3-0.2l0.6-3.2
                c-1.6,1.4-3.8,2-6,2h-4V12.9z M12.9,53c1.6,0.7,4.2,1.2,5.9,1.2c3.9,0,8-2.4,8-6.7c0-6.6-9.8-5.9-9.8-11.2c0-2.6,1.8-3.8,4.2-3.8
                c2.3,0,3.2,0.4,4.8,2v-3.2c-1.8,0-3.5-0.2-5.3-0.2c-3.6,0-6.9,2-6.9,6c0,6.4,9.8,5.6,9.8,11.4c0,2.8-2,4.3-4.6,4.3
                c-3.6,0-5.1-2-6.1-3.5V53z M34.3,43h0.9c2.1,0,6,0,7.2-2c-2.6,0.2-5.4,0.2-8.1,0.2V33h3.2c2,0,3.9,0.2,5.1,1.3l-0.1-2.6h-12
                c0.8,1.2,0.8,3,0.8,4.5v12.9c0,1.5-0.1,3.3-0.9,4.5h9.9c1.2,0,2.4-0.1,3.3-0.2l0.6-3.2c-1.6,1.4-3.8,2-6,2h-4V43z M56.3,53.8
                l0.7-1.9c2.3-6.3,5-13.3,8.3-19.1l0.6-1.1h-4.3c0.1,0.4,0.2,0.8,0.2,1.2c0,3.2-4.2,13-5.2,16.1C56.4,49.5,56.2,50,56,50
                c-0.2,0-0.4-0.3-0.6-1C54,43.6,52,38.3,50.3,33c-0.2-0.5-0.3-1.3-1-1.3h-3.1l0.6,1.2c2.4,5.2,4.9,13.7,6.5,19.2l0.5,1.8H56.3z
                M72,43h0.9c2.1,0,6,0,7.2-2c-2.6,0.2-5.4,0.2-8.1,0.2V33h3.2c2,0,3.9,0.2,5.1,1.3l-0.1-2.6h-12c0.8,1.2,0.8,3,0.8,4.5v12.9
                c0,1.5-0.1,3.3-0.9,4.5H78c1.2,0,2.4-0.1,3.3-0.2l0.6-3.2c-1.6,1.4-3.8,2-6,2h-4V43z M88.9,53.6c-1.1-2.6-1-6.1-1-8.8V36
                c0-0.3,0.1-0.5,0.2-0.5s0.2,0.2,0.4,0.4L101,53.8h2.4c0-1-0.1-2.1-0.1-3.2V36.8c0-1.8,0.2-3.5,1-5.1h-3.6c0.5,0.9,0.8,2.1,0.8,4.4
                v12.1c0,0.3,0,0.7-0.2,0.7c-0.2,0-0.5-0.5-0.7-0.8l-6.8-9.7c-1.1-1.5-3.3-5.2-4-6.2c-0.4-0.6-0.7-0.6-1.4-0.6H85
                c1,1,1.1,2.9,1.1,4.6v7.3c0,3,0,7.2-1.2,10H88.9z M30,71.2H19.8v-4.9c0-1.5,0-3.1,0.8-4.5h-4.7c0.8,1.4,0.8,3,0.8,4.5v12.9
                c0,1.5,0,3.1-0.8,4.5h4.7c-0.8-1.4-0.8-3-0.8-4.5v-6.6H30v6.6c0,1.5,0,3.1-0.8,4.5h4.7c-0.8-1.4-0.8-3-0.8-4.5V66.3
                c0-1.5,0-3.1,0.8-4.5h-4.7c0.8,1.4,0.8,3,0.8,4.5V71.2z M39.3,79.2c0,1.5,0,3.3-0.8,4.5h4.6c-0.8-1.2-0.8-3-0.8-4.5V66.3
                c0-1.5,0-3.3,0.8-4.5h-4.6c0.8,1.2,0.8,3,0.8,4.5V79.2z M49.1,75.9c0,1.6-0.1,6.5-1.2,7.8h9.5c0.7,0,1.4,0,2.1-0.1l0.7-3.2
                c-1.7,1.7-3.5,2-5.4,2h-2.6V66.3c0-1.5,0-3.3,0.8-4.5h-4.6c0.8,1.2,0.8,3,0.8,4.5V75.9z M64.4,75.9c0,1.6-0.1,6.5-1.2,7.8h9.5
                c0.7,0,1.4,0,2.1-0.1l0.7-3.2c-1.7,1.7-3.5,2-5.4,2h-2.6V66.3c0-1.5,0-3.3,0.8-4.5h-4.6c0.8,1.2,0.8,3,0.8,4.5V75.9z M78.3,83.1
                c1.6,0.7,4.2,1.2,5.9,1.2c3.9,0,8-2.4,8-6.7c0-6.6-9.8-5.9-9.8-11.2c0-2.6,1.8-3.8,4.2-3.8c2.3,0,3.2,0.4,4.8,2v-3.2
                c-1.8,0-3.5-0.2-5.3-0.2c-3.6,0-6.9,2-6.9,6c0,6.4,9.8,5.6,9.8,11.4c0,2.8-2,4.3-4.6,4.3c-3.6,0-5.1-2-6.1-3.5V83.1z M12.9,113.2
                c1.6,0.7,4.2,1.2,5.9,1.2c3.9,0,8-2.4,8-6.7c0-6.6-9.8-5.9-9.8-11.2c0-2.6,1.8-3.8,4.2-3.8c2.3,0,3.2,0.4,4.8,2v-3.2
                c-1.8,0-3.5-0.2-5.3-0.2c-3.6,0-6.9,2-6.9,6c0,6.4,9.8,5.6,9.8,11.4c0,2.8-2,4.3-4.6,4.3c-3.6,0-5.1-2-6.1-3.5V113.2z M46.7,91.6
                c-2.3,0-3.8-0.3-5.7-0.3c-7,0-11.1,4.7-11.1,11.8c0,6.3,3.8,11.3,10.1,11.3c5.4,0,7.8-3.2,7.8-4.8v-0.2c-1,1.1-3,2.4-6,2.4
                c-5.6,0-8.4-4.2-8.4-9.6c0-4.9,2.1-9.3,7.5-9.3c3.5,0,4.7,1.6,5.5,3.1h0.1L46.7,91.6z M65.6,101.3H55.4v-4.9c0-1.5,0-3.1,0.8-4.5
                h-4.7c0.8,1.4,0.8,3,0.8,4.5v12.9c0,1.5,0,3.1-0.8,4.5h4.7c-0.8-1.4-0.8-3-0.8-4.5v-6.6h10.2v6.6c0,1.5,0,3.1-0.8,4.5h4.7
                c-0.8-1.4-0.8-3-0.8-4.5V96.4c0-1.5,0-3.1,0.8-4.5h-4.7c0.8,1.4,0.8,3,0.8,4.5V101.3z M83.5,114.4c7.2,0,10.9-5.4,10.9-12
                c0-6.1-3.2-11.1-10.4-11.1c-7.2,0-10.9,5.4-10.9,12C73.1,109.5,76.3,114.4,83.5,114.4 M83.8,92.9c5.5,0,7.1,6,7.1,10.5
                c0,5-2.1,9.5-7.1,9.5c-5.5,0-7.1-6-7.1-10.5C76.7,97.4,78.8,92.9,83.8,92.9 M108.4,114.4c7.2,0,10.9-5.4,10.9-12
                c0-6.1-3.2-11.1-10.4-11.1c-7.2,0-10.9,5.4-10.9,12C98,109.5,101.2,114.4,108.4,114.4 M108.7,92.9c5.5,0,7.1,6,7.1,10.5
                c0,5-2.1,9.5-7.1,9.5c-5.5,0-7.1-6-7.1-10.5C101.6,97.4,103.8,92.9,108.7,92.9 M124.2,106c0,1.6-0.1,6.5-1.2,7.8h9.5
                c0.7,0,1.4,0,2.1-0.1l0.7-3.2c-1.7,1.7-3.5,2-5.4,2h-2.6V96.4c0-1.5,0-3.3,0.8-4.5h-4.6c0.8,1.2,0.8,3,0.8,4.5V106z"></path>
            <path d="M2,1v113.5"></path>
            </svg>